<?xml version="1.0" encoding="UTF-8" standalone="no"?>
<!-- Created with Inkscape (http://www.inkscape.org/) -->

<svg
   xmlns:dc="http://purl.org/dc/elements/1.1/"
   xmlns:cc="http://creativecommons.org/ns#"
   xmlns:rdf="http://www.w3.org/1999/02/22-rdf-syntax-ns#"
   xmlns:svg="http://www.w3.org/2000/svg"
   xmlns="http://www.w3.org/2000/svg"
   version="1.1"
   width="663.11249"
   height="142.175"
   viewBox="0 0 663 142"
   id="svg3004"
   xml:space="preserve"><metadata
     id="metadata3010"><rdf:RDF><cc:Work
         rdf:about=""><dc:format>image/svg+xml</dc:format><dc:type
           rdf:resource="http://purl.org/dc/dcmitype/StillImage" /><dc:title></dc:title></cc:Work></rdf:RDF></metadata><defs
     id="defs3008" /><g
     transform="matrix(1.25,0,0,-1.25,0,142.175)"
     id="g3012"><g
       transform="scale(0.1,0.1)"
       id="g3014"><path
         d="m 555.586,978.672 c -87.676,0 -158.738,71.098 -158.738,158.748 l 555.593,0 c 87.669,0 158.729,-71.06 158.729,-158.748 l -0.01,-555.602 c -87.67,0 -158.738,71.075 -158.738,158.735 l 0.019,317.5 c 0,43.828 -35.546,79.367 -79.375,79.367 l -317.48,0"
         id="path3016"
         style="fill:#ffffff;fill-opacity:1;fill-rule:nonzero;stroke:none" /><path
         d="m 793.691,740.547 c 0,43.836 -35.539,79.383 -79.367,79.383 l -634.9607,0 C 35.5273,819.93 0,784.383 0,740.547 L 0,105.578 C 0,61.7383 35.5273,26.1992 79.3633,26.1992 l 634.9607,0 c 43.828,0 79.367,35.5391 79.367,79.3788 l 0,634.969"
         id="path3018"
         style="fill:#ffffff;fill-opacity:1;fill-rule:nonzero;stroke:none" /><path
         d="m 1902.31,103.531 c -44.02,-83.3005 -158.27,-89.2615 -246.33,-89.2615 -67.84,0 -135.67,4.7696 -174.94,8.3321 -48.78,4.7695 -61.88,16.6601 -61.88,41.6484 l 0,40.469 c 0,42.851 7.15,57.129 45.22,57.129 70.22,0 105.91,-9.52 209.45,-9.52 79.73,0 95.2,5.945 95.2,77.352 0,80.918 -1.18,86.867 -41.65,103.527 -51.17,21.426 -99.96,41.66 -149.94,63.074 -123.77,53.555 -148.75,77.356 -148.75,218.961 0,90.457 16.66,160.672 117.81,193.992 44.03,14.282 95.2,19.036 165.41,19.036 54.75,0 83.3,-2.372 134.48,-5.95 48.79,-3.574 63.07,-15.465 63.07,-41.648 l 0,-39.277 c 0,-42.832 -8.34,-57.122 -46.41,-57.122 -41.65,0 -45.23,7.141 -214.2,7.141 -66.65,0 -64.27,-28.555 -64.27,-86.875 0,-42.844 1.19,-52.367 41.65,-70.211 32.13,-14.285 65.45,-27.371 97.58,-41.648 165.42,-70.215 201.12,-86.875 201.12,-222.539 0,-45.227 -1.19,-124.953 -22.62,-166.61"
         id="path3020"
         style="fill:#ffffff;fill-opacity:1;fill-rule:nonzero;stroke:none" /><path
         d="m 2553.92,683.082 c -67.84,0 -123.75,1.191 -174.93,2.387 l 0,-608.1174 c 0,-35.711 -16.66,-52.3711 -51.17,-52.3711 l -51.17,0 c -39.28,0 -57.13,10.7187 -57.13,52.3711 l 0,608.1174 c -51.17,-1.196 -108.29,-2.387 -176.12,-2.387 -48.79,0 -49.98,30.941 -49.98,55.93 l 0,32.148 c 0,40.457 22.61,48.781 49.98,48.781 l 510.52,0 c 27.38,0 51.17,-8.324 51.17,-48.781 l 0,-32.148 c 0,-24.989 -2.38,-55.93 -51.17,-55.93"
         id="path3022"
         style="fill:#ffffff;fill-opacity:1;fill-rule:nonzero;stroke:none" /><path
         d="m 3042.47,674.754 c -19.02,9.519 -70.19,9.519 -91.62,9.519 -38.09,0 -69.02,-1.191 -102.34,-2.371 l 0,-232.066 134.47,0 c 42.83,0 64.26,7.141 77.34,23.801 10.72,14.285 14.28,33.32 14.28,77.351 0,48.793 -4.75,109.489 -32.13,123.766 z m 189.22,-649.7735 -71.41,0 c -29.74,0 -49.98,3.5781 -72.57,32.1289 l -202.31,257.0626 -36.89,0 0,-236.8204 c 0,-35.711 -15.47,-52.3711 -49.98,-52.3711 l -51.18,0 c -39.27,0 -58.32,10.7187 -58.32,52.3711 l 0,693.8084 c 0,46.406 32.13,48.781 58.32,48.781 l 220.16,0 c 124.94,0 157.09,-8.324 203.5,-55.929 44.02,-44.032 61.87,-120.203 61.87,-222.543 0,-97.578 -28.55,-158.281 -78.53,-192.785 -21.43,-14.286 -46.41,-23.797 -79.75,-28.563 L 3256.69,98.7617 c 23.79,-28.5508 28.55,-73.7812 -25,-73.7812"
         id="path3024"
         style="fill:#ffffff;fill-opacity:1;fill-rule:nonzero;stroke:none" /><path
         d="m 3690.75,618.816 -95.19,-280.843 c 27.36,0 59.51,1.191 94.02,1.191 36.88,0 61.88,-1.191 96.39,-1.191 l -95.22,280.843 z m 314.18,-593.8355 -65.45,0 c -36.89,0 -47.6,17.8593 -55.92,41.6484 L 3831.2,215.402 c -51.17,-1.191 -89.28,-1.191 -141.62,-1.191 -50,0 -94.02,0 -136.86,1.191 L 3505.11,74.9609 C 3494.4,42.8398 3484.89,24.9805 3444.42,24.9805 l -54.74,0 c -40.45,0 -46.41,10.7187 -46.41,28.5703 0,7.1406 3.58,21.4101 9.51,36.8789 L 3596.75,771.16 c 13.08,36.887 26.17,53.543 70.21,53.543 l 48.79,0 c 44.04,0 57.13,-16.656 70.22,-52.359 L 4043.02,78.5391 c 2.38,-5.961 4.76,-11.9102 4.76,-17.8477 0,-29.7617 -23.81,-35.7109 -42.85,-35.7109"
         id="path3026"
         style="fill:#ffffff;fill-opacity:1;fill-rule:nonzero;stroke:none" /><path
         d="m 4542.78,683.082 c -67.83,0 -123.77,1.191 -174.94,2.387 l 0,-608.1174 c 0,-35.711 -16.66,-52.3711 -51.17,-52.3711 l -51.17,0 c -39.28,0 -57.13,10.7187 -57.13,52.3711 l 0,608.1174 c -51.17,-1.196 -108.28,-2.387 -176.11,-2.387 -48.79,0 -49.98,30.941 -49.98,55.93 l 0,32.148 c 0,40.457 22.59,48.781 49.98,48.781 l 510.52,0 c 27.37,0 51.18,-8.324 51.18,-48.781 l 0,-32.148 c 0,-24.989 -2.39,-55.93 -51.18,-55.93"
         id="path3028"
         style="fill:#ffffff;fill-opacity:1;fill-rule:nonzero;stroke:none" /><path
         d="m 5113.25,627.148 c -26.17,55.926 -80.92,76.161 -147.56,76.161 -66.64,0 -121.38,-20.235 -147.56,-76.161 -22.61,-49.984 -26.19,-145.183 -26.19,-205.875 0,-60.683 3.58,-154.707 26.19,-204.687 26.18,-55.93 80.92,-77.356 147.56,-77.356 66.64,0 121.39,21.426 147.56,77.356 22.62,49.98 26.19,144.004 26.19,204.687 0,60.692 -3.57,155.891 -26.19,205.875 z M 5215.6,99.9609 C 5158.47,32.1289 5078.74,0 4965.69,0 4852.63,0 4770.52,32.1289 4714.6,99.9609 c -70.22,83.3051 -88.07,198.7341 -88.07,321.3121 0,122.567 17.85,238 88.07,321.313 58.3,69.023 140.41,99.973 251.09,99.973 110.67,0 191.59,-30.95 249.91,-99.973 70.21,-83.313 89.25,-198.746 89.25,-321.313 0,-122.578 -19.04,-238.007 -89.25,-321.3121"
         id="path3030"
         style="fill:#ffffff;fill-opacity:1;fill-rule:nonzero;stroke:none" /></g></g></svg>